HIERARCHY
ROOT Hips
{
    OFFSET 0.000000 0.000000 0.000000
    CHANNELS 6 Xposition Yposition Zposition Zrotation Xrotation Yrotation
    JOINT Spine
    {
        OFFSET -0.000000 8.267054 0.000000
        CHANNELS 3 Zrotation Xrotation Yrotation
        JOINT Spine1
        {
            OFFSET -0.000000 23.684998 0.000000
            CHANNELS 3 Zrotation Xrotation Yrotation
            JOINT Neck
            {
                OFFSET -0.000000 23.587730 2.144339
                CHANNELS 3 Zrotation Xrotation Yrotation
                JOINT Head
                {
                    OFFSET -0.000000 14.114483 -2.016355
                    CHANNELS 3 Zrotation Xrotation Yrotation
                    End Site
                    {
                        OFFSET -0.000000 25.204432 0.000000
                    }
                }
            }
            JOINT LeftShoulder
            {
                OFFSET 4.070090 22.062094 -0.247321
                CHANNELS 3 Zrotation Xrotation Yrotation
                JOINT LeftArm
                {
                    OFFSET 10.395479 0.000000 0.000000
                    CHANNELS 3 Zrotation Xrotation Yrotation
                    JOINT LeftForeArm
                    {
                        OFFSET 37.713577 0.000000 0.000000
                        CHANNELS 3 Zrotation Xrotation Yrotation
                        JOINT LeftHand
                        {
                            OFFSET 20.284107 0.000000 0.000000
                            CHANNELS 3 Zrotation Xrotation Yrotation
                            End Site
                            {
                                OFFSET 15.122660 0.000000 0.000000
                            }
                        }
                    }
                }
            }
            JOINT RightShoulder
            {
                OFFSET -3.979272 22.062094 -0.247321
                CHANNELS 3 Zrotation Xrotation Yrotation
                JOINT RightArm
                {
                    OFFSET -10.395479 0.000000 0.000000
                    CHANNELS 3 Zrotation Xrotation Yrotation
                    JOINT RightForeArm
                    {
                        OFFSET -37.713577 0.000000 0.000000
                        CHANNELS 3 Zrotation Xrotation Yrotation
                        JOINT RightHand
                        {
                            OFFSET -20.284107 0.000000 0.000000
                            CHANNELS 3 Zrotation Xrotation Yrotation
                            End Site
                            {
                                OFFSET -15.122660 0.000000 0.000000
                            }
                        }
                    }
                }
            }
        }
    }
    JOINT LeftUpLeg
    {
        OFFSET 10.081773 0.000000 0.000000
        CHANNELS 3 Zrotation Xrotation Yrotation
        JOINT LeftLeg
        {
            OFFSET -0.000000 -36.382099 0.000000
            CHANNELS 3 Zrotation Xrotation Yrotation
            JOINT LeftFoot
            {
                OFFSET -0.000000 -49.182560 0.000000
                CHANNELS 3 Zrotation Xrotation Yrotation
                JOINT LeftToeBase
                {
                    OFFSET -0.000000 -6.553152 15.122660
                    CHANNELS 3 Zrotation Xrotation Yrotation
                    End Site
                    {
                        OFFSET -0.000000 0.000000 4.032709
                    }
                }
            }
        }
    }
    JOINT RightUpLeg
    {
        OFFSET -10.081773 0.000000 0.000000
        CHANNELS 3 Zrotation Xrotation Yrotation
        JOINT RightLeg
        {
            OFFSET -0.000000 -36.382099 0.000000
            CHANNELS 3 Zrotation Xrotation Yrotation
            JOINT RightFoot
            {
                OFFSET -0.000000 -49.182560 0.000000
                CHANNELS 3 Zrotation Xrotation Yrotation
                JOINT RightToeBase
                {
                    OFFSET -0.000000 -6.553152 15.122660
                    CHANNELS 3 Zrotation Xrotation Yrotation
                    End Site
                    {
                        OFFSET -0.000000 0.000000 4.032709
                    }
                }
            }
        }
    }
}
MOTION
Frames:    9
Frame Time:    0.008333
55.115425    92.178062    -31.117916    -2.894717    1.774446    -176.618988    -6.451877    -6.161227    1.393094    -2.781549    3.866990    1.834625    -2.380153    27.229193    -10.585388    11.128504    9.890903    -10.668595    8.684393    7.776981    -4.110028    -62.153049    60.289192    -17.649963    4.118275    -19.254938    -24.901138    -6.184237    -18.663149    5.265915    -5.482170    8.024518    -0.103301    64.167229    52.992870    16.413794    -4.069874    -9.274796    24.951153    -12.034675    -8.446121    0.586270    -11.614952    -2.360800    -2.384057    1.286853    13.524342    3.268622    0.327739    -10.235022    -7.119560    0.000000    0.000000    0.000000    -8.761198    -20.427359    -1.925172    6.898932    52.555382    -12.604548    5.368916    -4.487861    -0.569891    0.000000    0.000000    0.000000    
55.182808    92.183235    -31.487673    -2.865759    1.775835    -176.295715    -6.502272    -6.142450    1.302301    -2.693809    3.894471    1.743197    -2.272443    27.030321    -10.624578    11.043890    10.177848    -10.726296    8.742085    7.720559    -4.173476    -61.772877    60.104904    -17.934858    4.021840    -19.476149    -25.012892    -6.181097    -18.908203    5.400872    -5.466394    8.014719    -0.080821    64.151749    52.922333    16.376457    -4.009181    -9.277902    24.696585    -12.143657    -8.480430    0.663377    -11.510486    -2.021052    -2.612345    1.258402    13.393573    3.304643    0.137205    -10.422275    -7.178022    0.000000    0.000000    0.000000    -8.698423    -20.888550    -1.697037    6.376594    51.603813    -12.012734    5.212821    -4.841045    -0.809435    0.000000    0.000000    0.000000    
55.250019    92.187500    -31.854551    -2.836734    1.767816    -175.977142    -6.545693    -6.129029    1.218334    -2.615274    3.922502    1.658711    -2.173116    26.857346    -10.604483    10.973083    10.395152    -10.715940    8.801839    7.659098    -4.233990    -61.395878    59.902042    -18.218357    3.898394    -19.717308    -25.132135    -6.166409    -19.178797    5.545938    -5.446330    8.008291    -0.057803    64.140526    52.863068    16.337765    -3.955728    -9.281671    24.449743    -12.259040    -8.513080    0.736928    -11.405225    -1.702442    -2.818539    1.236457    13.277615    3.306850    -0.039748    -10.607263    -7.221215    0.000000    0.000000    0.000000    -8.635962    -21.347746    -1.467277    5.886430    50.612789    -11.444549    5.036506    -5.112957    -1.052189    0.000000    0.000000    0.000000    
55.320663    92.191116    -32.230003    -2.807563    1.750558    -175.655655    -6.587066    -6.119002    1.139238    -2.541547    3.950263    1.579406    -2.076212    26.715139    -10.502625    10.909130    10.528268    -10.612518    8.866066    7.590718    -4.293141    -61.009769    59.677036    -18.512197    3.745417    -19.978888    -25.260454    -6.123843    -19.475353    5.704332    -5.418930    8.005314    -0.032986    64.132919    52.814697    16.294886    -3.911255    -9.290670    24.206848    -12.380010    -8.548196    0.804095    -11.294547    -1.393971    -3.007146    1.218195    13.170719    3.282799    -0.190135    -10.790264    -7.269698    0.000000    0.000000    0.000000    -8.572816    -21.816868    -1.230788    5.415459    49.550930    -10.891610    4.839326    -5.305531    -1.298515    0.000000    0.000000    0.000000    
55.390823    92.193932    -32.591473    -2.780364    1.726101    -175.350998    -6.625095    -6.111102    1.069362    -2.475432    3.974183    1.509328    -1.988438    26.641298    -10.290134    10.854112    10.518059    -10.381507    8.929049    7.522594    -4.347787    -60.634441    59.447514    -18.802916    3.590025    -20.234684    -25.380598    -6.072452    -19.766415    5.859650    -5.387699    8.008018    -0.007577    64.124855    52.776825    16.257030    -3.871443    -9.302997    23.982103    -12.500005    -8.584103    0.863319    -11.185183    -1.112433    -3.170378    1.203351    13.077953    3.237177    -0.305311    -10.957251    -7.322398    0.000000    0.000000    0.000000    -8.516638    -22.262333    -1.003228    5.003439    48.479603    -10.401798    4.652706    -5.405066    -1.525568    0.000000    0.000000    0.000000    
55.464428    92.196068    -32.963924    -2.753905    1.694560    -175.041168    -6.661898    -6.102633    1.002105    -2.411621    3.993890    1.441768    -1.904235    26.678047    -9.907238    10.799312    10.283380    -9.953351    8.990882    7.451185    -4.400357    -60.242897    59.205280    -19.110176    3.448773    -20.492172    -25.489317    -6.049268    -20.058060    6.016864    -5.354371    8.018745    0.021373    64.115898    52.744686    16.225435    -3.835117    -9.315727    23.756220    -12.621710    -8.619873    0.923892    -11.071543    -0.836463    -3.320030    1.191964    12.993237    3.162936    -0.401046    -11.119721    -7.374040    0.000000    0.000000    0.000000    -8.465854    -22.712608    -0.772551    4.623826    47.331493    -9.947636    4.480669    -5.411027    -1.749242    0.000000    0.000000    0.000000    
55.535065    92.197220    -33.317123    -2.731098    1.660067    -174.751846    -6.694200    -6.092627    0.942205    -2.356174    4.006673    1.381327    -1.825010    26.896790    -9.320984    10.737752    9.713471    -9.285049    9.045787    7.381587    -4.444756    -59.869095    58.975452    -19.406895    3.347483    -20.717941    -25.571123    -6.067245    -20.311335    6.153826    -5.322598    8.036658    0.054652    64.107780    52.719044    16.202835    -3.799997    -9.331483    23.546051    -12.741826    -8.657843    0.984855    -10.964096    -0.586820    -3.442631    1.185264    12.921389    3.090805    -0.476827    -11.262390    -7.446296    0.000000    0.000000    0.000000    -8.423124    -23.130684    -0.570756    4.293094    46.204735    -9.559030    4.332800    -5.324040    -1.940779    0.000000    0.000000    0.000000    
55.609341    92.197327    -33.684566    -2.709811    1.620388    -174.456360    -6.725207    -6.080051    0.883814    -2.303677    4.014797    1.322153    -1.718465    27.401499    -8.485979    10.656281    8.618864    -8.311136    9.099058    7.308659    -4.486767    -59.478493    58.737053    -19.720945    3.274522    -20.923899    -25.633554    -6.096765    -20.539072    6.273299    -5.289300    8.060774    0.095217    64.101112    52.697456    16.185041    -3.757674    -9.356601    23.331745    -12.880206    -8.707898    1.054209    -10.851887    -0.338670    -3.557853    1.178859    12.851181    3.076626    -0.551814    -11.393619    -7.604289    0.000000    0.000000    0.000000    -8.385144    -23.554880    -0.386827    3.976685    44.992672    -9.203770    4.194835    -5.135699    -2.099007    0.000000    0.000000    0.000000    
55.683392    92.196068    -34.047447    -2.691748    1.577228    -174.170883    -6.755394    -6.066145    0.830637    -2.253732    4.018661    1.268082    -1.568220    28.104836    -7.589818    10.544085    7.177179    -7.243018    9.145864    7.235463    -4.527202    -59.094215    58.502861    -20.032925    3.231819    -21.091766    -25.675114    -6.110128    -20.720701    6.367521    -5.257139    8.088106    0.137969    64.095970    52.682674    16.172907    -3.709470    -9.390421    23.125969    -13.027020    -8.767881    1.125138    -10.741192    -0.106691    -3.656887    1.172801    12.787260    3.138914    -0.623758    -11.504602    -7.859855    0.000000    0.000000    0.000000    -8.356807    -23.961269    -0.233329    3.703292    43.748657    -8.920179    4.080263    -4.845661    -2.195591    0.000000    0.000000    0.000000    
